<mxfile host="Electron" modified="2023-08-24T18:53:26.997Z" agent="Mozilla/5.0 (Windows NT 10.0; Win64; x64) AppleWebKit/537.36 (KHTML, like Gecko) draw.io/21.6.5 Chrome/114.0.5735.243 Electron/25.3.1 Safari/537.36" etag="0jxy6UjZcaG85ZusgmCc" version="21.6.5" type="device">
  <diagram name="PÃ¡gina-1" id="bIEXKn8xlxfelBv4T-Ch">
    <mxGraphModel dx="1595" dy="1097" grid="1" gridSize="10" guides="1" tooltips="1" connect="1" arrows="1" fold="1" page="0" pageScale="1" pageWidth="827" pageHeight="1169" math="0" shadow="0">
      <root>
        <mxCell id="0" />
        <mxCell id="1" parent="0" />
        <mxCell id="Xc86Myf6HP5PYPa5IBeI-15" value="" style="group" vertex="1" connectable="0" parent="1">
          <mxGeometry x="20" y="200" width="655" height="110" as="geometry" />
        </mxCell>
        <mxCell id="Xc86Myf6HP5PYPa5IBeI-9" value="" style="group" vertex="1" connectable="0" parent="Xc86Myf6HP5PYPa5IBeI-15">
          <mxGeometry x="15" width="640" height="80" as="geometry" />
        </mxCell>
        <mxCell id="Xc86Myf6HP5PYPa5IBeI-1" value="" style="whiteSpace=wrap;html=1;aspect=fixed;" vertex="1" parent="Xc86Myf6HP5PYPa5IBeI-9">
          <mxGeometry width="80" height="80" as="geometry" />
        </mxCell>
        <mxCell id="Xc86Myf6HP5PYPa5IBeI-2" value="" style="whiteSpace=wrap;html=1;aspect=fixed;" vertex="1" parent="Xc86Myf6HP5PYPa5IBeI-9">
          <mxGeometry x="80" width="80" height="80" as="geometry" />
        </mxCell>
        <mxCell id="Xc86Myf6HP5PYPa5IBeI-3" value="" style="whiteSpace=wrap;html=1;aspect=fixed;" vertex="1" parent="Xc86Myf6HP5PYPa5IBeI-9">
          <mxGeometry x="160" width="80" height="80" as="geometry" />
        </mxCell>
        <mxCell id="Xc86Myf6HP5PYPa5IBeI-4" value="" style="whiteSpace=wrap;html=1;aspect=fixed;" vertex="1" parent="Xc86Myf6HP5PYPa5IBeI-9">
          <mxGeometry x="240" width="80" height="80" as="geometry" />
        </mxCell>
        <mxCell id="Xc86Myf6HP5PYPa5IBeI-5" value="" style="whiteSpace=wrap;html=1;aspect=fixed;" vertex="1" parent="Xc86Myf6HP5PYPa5IBeI-9">
          <mxGeometry x="320" width="80" height="80" as="geometry" />
        </mxCell>
        <mxCell id="Xc86Myf6HP5PYPa5IBeI-6" value="" style="whiteSpace=wrap;html=1;aspect=fixed;" vertex="1" parent="Xc86Myf6HP5PYPa5IBeI-9">
          <mxGeometry x="400" width="80" height="80" as="geometry" />
        </mxCell>
        <mxCell id="Xc86Myf6HP5PYPa5IBeI-7" value="4" style="whiteSpace=wrap;html=1;aspect=fixed;" vertex="1" parent="Xc86Myf6HP5PYPa5IBeI-9">
          <mxGeometry x="480" width="80" height="80" as="geometry" />
        </mxCell>
        <mxCell id="Xc86Myf6HP5PYPa5IBeI-8" value="hola" style="whiteSpace=wrap;html=1;aspect=fixed;" vertex="1" parent="Xc86Myf6HP5PYPa5IBeI-9">
          <mxGeometry x="560" width="80" height="80" as="geometry" />
        </mxCell>
        <mxCell id="Xc86Myf6HP5PYPa5IBeI-14" value="&lt;font style=&quot;font-size: 16px;&quot;&gt;vec&lt;/font&gt;" style="text;html=1;align=center;verticalAlign=middle;resizable=0;points=[];autosize=1;strokeColor=none;fillColor=none;" vertex="1" parent="Xc86Myf6HP5PYPa5IBeI-15">
          <mxGeometry y="80" width="50" height="30" as="geometry" />
        </mxCell>
        <mxCell id="Xc86Myf6HP5PYPa5IBeI-16" value="" style="group" vertex="1" connectable="0" parent="1">
          <mxGeometry x="490" y="310" width="60" height="95" as="geometry" />
        </mxCell>
        <mxCell id="Xc86Myf6HP5PYPa5IBeI-10" value="" style="shape=flexArrow;endArrow=classic;html=1;rounded=0;" edge="1" parent="Xc86Myf6HP5PYPa5IBeI-16">
          <mxGeometry width="50" height="50" relative="1" as="geometry">
            <mxPoint x="29.170000000000073" y="60" as="sourcePoint" />
            <mxPoint x="29.170000000000073" as="targetPoint" />
          </mxGeometry>
        </mxCell>
        <mxCell id="Xc86Myf6HP5PYPa5IBeI-11" value="&lt;font style=&quot;font-size: 19px;&quot;&gt;tope&lt;/font&gt;" style="text;html=1;align=center;verticalAlign=middle;resizable=0;points=[];autosize=1;strokeColor=none;fillColor=none;" vertex="1" parent="Xc86Myf6HP5PYPa5IBeI-16">
          <mxGeometry y="55" width="60" height="40" as="geometry" />
        </mxCell>
        <mxCell id="Xc86Myf6HP5PYPa5IBeI-19" value="" style="shape=image;verticalLabelPosition=bottom;labelBackgroundColor=default;verticalAlign=top;aspect=fixed;imageAspect=0;image=data:image/png,iVBORw0KGgoAAAANSUhEUgAAAewAAAC+CAYAAAD3GzwoAAAAAXNSR0IArs4c6QAAAARnQU1BAACxjwv8YQUAAAAJcEhZcwAADsMAAA7DAcdvqGQAACgXSURBVHhe7d0PUFT3oS/wr03frXKfFqSEIAIG/0CrpBo1DgEx6i0PIvXeCe9lJCpWbeoNztg0L2M61ShJtFOZ1PYyo33WivEv3t6S6UuxUN5oqoiMVaMNasA/REA0hOAabYW0907e73f2t+w5u+csy+4Ce8z3M7PjOWf37Dm7B8/3/P6dHTZjztzP4cOnXV1qioiIiIbKl9S/REREFMYY2ERERDYQcGDHPvYjrMuYoU2nZfysd5qIiIhCL+A2bBnSC3EAm+vOGKb7JfLbeCF7HkbL6XtHsbnqd9riUItN+jae+YbYzki1QLrXidt3a/ALq31W+4bGN/GL99vVQqKhl/bYSmSmTnH+vxFu37uAE/W70HBHLbASOQPz0rORPjLGOS/WqxfrHe1rPSIKCyEJ7Hm5P0NKe+DBJkvr341vGJjATlqJdbNiceXUHvy6pR/794AFtna84tVMH66c+oH4rtQMZuDZZxdjoprTM77OzbAtywuxePG+L/e+7+0gvmezz6Z/P+3vK1WFlEu7+283XX8hZ+kC3vm1CEU1p+d9QSguBttr8LZ4/8ni/b92yfx76r94sb8vI13uS321CGj5+eLF51+mff76mh/7CF9xHHOz8cmlPTjq+n8gAvwFEeBN9b7WI6JwEXBg60NaTgdzUhrIwA649P+Akd9D5j1jKHpfaDnDGRZBLLne520s83nMnMdUBKcozXWZvZ92ITUFt8Wk6fP9pV1gpaHJV2hZvkZ+bhFmVutq+wqTwHYGaIoI0KZL1e4gFNLE51+Y2iFKv1PQFaLAdl54dJheOLj+D/1KHI8OtUzP8v+o/E7Sgbct1iOi8BFUp7OuT+UJaga+5lcJZejcvndLTVFQxMk9M74TTa3t6GhtEGGchnmR6jlTDTgh/kQmjvXu3zDvGyKsG48iZIMG7/xObCsGKYnW1QixiWkYfa8h4NLkx+pfl7QMEdbygqdqlyGspYb3f4zNp2BshgnS5PgY8Z2JkrWa13Mdj8lmx0Mct5SRF3DM7KJBfG9NmIc5SWqeiMJWgIHtGdKd+ORTNWklUpRGMn6Edc/+rPfxQsa3EevzhC9OsknfxrOidKBfb13ujzAvyfrErJWI1GtlVeHo1JeN68uHaSc5WdLy53VusmTjfK3YJ/FZYh9biRd062ufUb3WTECfb4gYAk+e6O/5Dkip4eJR3I7PNga7FiAy+EN7IdVw44I41jkW33c85qTG4MqlAGpxWnZhsyjVGkqg4m9sYfwFvO2rGl+sV39PTYfA0aofBNRsoB239j9blqA775pfVBFReHlozLhHi9W0qc+6u9WUM5xenPMMsiY/hmgxHz02R03/IxLGy+kcTHnoAs50eJylxMnthTkZGPbBHvyfk/+B2ot/EI8L+Czqm/gfs3Lx8Gfivb7yMWqvXlYrKGK9F2cl4/L5X+APYr0qbb0/4PIn3Xh4Qj6emxKJy2Kdv6qX9/r0nNrGH3AnMgcxN9/E1qOu7apH2031Yr2buKh7jVw3RZRnzF/r9NeOWtS2/wOmjI/F1x5+BhmjLuDAsVJUnRXv0X4BoyYsxj9P/Afz/Qz08wUgNjEHiX87aTg2j07Mwdfu6ZcNE697EhGdf8BFrwuweMx6/Fv4x/aK3tffj5iOjPiHTPfxv8fOxuOjxDG98Dt8FvkM/unhrt7vMW36C5h677fYe0WUGsXfD9rNtheATx9C3OR/wri/mLxf0rP4l7Efo+7kOa+SMjBG7Md43L9Wiw97nEtkFfLMv1vvV9qUQqTc+3+o8vG3IX14NUSfrQ/adzrsFPZe8Pg/JGjH4ivXLP+Oh0VN9/k8EYWHfpWwO2Q1369/gM01otQkStX1NR7T4jnvEoAotc6K1doNjZ2+2tHw/i78oqYB0fEeHYIk2bYm1tM60oj19KWDjjtncLTux3jn7jx8N2yGk4nPcPeA1qbb4apyvdMuSkUHcGWkSZXjIH++hjp/Smdyfy3aW5NykD7yAk7o3qPj/Rrzz+bBWMqega+LQvmVGwPRp+AMPhC7Z1ZaTBs7RXy8P5tWJwcqXJpa5IW0LO2/MwB9QIgofIToxikd6LRoF4x9LBsT22us2w21tkc1reOsxvOxnuAMgm8iTc0PrU40XTQLoTP4xKRa1G6fzzzwrAPSQFWfp0+e4fx7uHfUvD01BMy/M38uEsT+ZbubJfzrOT700jKsO6IR0YMlRIFtTeso00dJ5ON7nWrK7WE5VjR+sbFt1/OhjeGORUwf7eDhyF6fzzrwZLsx/LioOHpJvi4bz8i/h/b3LNtTg3bnPXFxMAWZj7nb1v27SHDXEslHKNueB4oM64Wjgg9r7W+RiMJevwJbtuu5g0SVSLTpKVioQuYF3YkyaHKsrDqBWj98DOMJdzb5fFrgiX8nzlLHX/+YJUre4vjrA9JUS7UIwRiM9qhWD712XGzvxOj4x9W8umgM8UWCvMgcPTJOzQ02OZzsZyKs5TAuP8N61FDtKxGFSr8CW7ZvaiFySpSWtBtJuKd/pQLGs51UO3n2cWIzu8J3ldx89bC2Mzt9Pudwojd1FxHGx68ajQFpztk+LntbD3TVrWHIWW+P9P5dJHi25cuAfFbXVq9tw7P3+6Bw3TzlqOWYa0/O7+Nhi1qQ+AHsU0BEoRR4lfi9j7UTb+xXReSIaasTh9YxydeJTZxQM80KZ1qJbAqeCWWJPZzY5fP5EXj+jckeRLox2cGOvbYktvF2I5Ce7mvYnrwL2c9Cd5/9SHm3speR4urcqBb3Sfs+LGpBknIwUVxwD1SfAiIKnYACWwtpvbu+2qjP4NenOpCS/SNRQtGfMMTJTI5Zzk5DlyiFexMlsvoD6Ip/WRvLnBbpcbIR89r6z64Uz6lltmKPz5c2eV6fneNcncr6GpM9mJxjspfhmUDHXvtBjpr4VXsavpvreYzEhYI2vv5lLBwlSsKhuMueDOvsxYiWN2oxfT95DwHnvQDMNNTJv7Vlhv+Dch+dIxU8xpgTUVgK6Nak+tt9mt3y0pT84YHJ2UjXDeG63X4Ub18UJ9NE2dPVudz7ntIyuHJEKXyK4a5R8gcPmtr/jIvvn/E62Wj710d2eN8HW57wzO+ZbWS8p7SsKjX0KNbfO1vewEVr41VM76vd/88XOFWdatED2vDdy2FnWv8EPc/7afv7nckOXbq2eM/vRbK853igXPvmuc9GXsfPB6t7p8eKv+3JHn/b2g9reNyuNCimx8OTx/fsSYZ+uvhOXJ+XP/5BZCsBB7YrpOUJL5gf/iAiIqK+BfzjH0RERDR4BnwcNhEREQWPgU1ERGQDDGwiIiIbYBs2hQe/ekGb8d0LnIjoQcHAJiIisgFWiRMREdkAA5uIiMgGGNhEREQ2wMAmIiKyAQY2ERGRDTCwiYiIbICBTUREZAMMbCIiIhtgYBMREdkAA5uIiMgGGNhEREQ2wMAmIiKyAQY2ERGRDTCwiYiIbICBTUREZAMMbCIiIhtgYBMREdkAA5uIiMgGGNhEREQ2wMAmIiKyAQY2ERGRDTCwiYiIbICBTUREZAMMbCIiIhtgYBMREdkAA5uIiMgGGNhEREQ2wMAmIiKyAQY2ERGRDTCwiYiIbICBTUREZAMMbCIiIhtgYBMREdnAsBlz5n6upk192tWlpr7AEsZi6YY4RMnpjlsoXX9DWxxqMeljkbNAbCdWLZA6euC4dRP7tvE4EBF9kfU/sLXwikLz6w2oa1PLviBi8tNQMM0xMIGdPhFrVgxHc9k1VNbfVwvDyIN+3L/Af9dEZA+sEg8TqY9HAudvhmdYExHRkGNghxHHR91qioiIyMjvKnGtOjhnuDZtqeMWytffQKealTzXay47LUqRakbSqoJF6VJxVF9ENcb3riPn9/1pBPJWjUFyrPt9HB13cHrHFTRaVF/K9uBZC+LEOmqB1NGDs4evoc5XKTYhAhkLx2P6VN22zt9C9Ts3gCesq8QD2p7HZzd1vhmlIW2/jkDq6vGYKT6f1iYvyO+y+XA7sGAyog4bj0+gx11KXT0T2VPVDO6g5nlxvDy3L7Zd03sco5G3MxnJ2nKPvgIe35XX35GO2bFwfsbbiFoh3l23bjCfj4hoMA1OG7Z2sgXKxQnb/KTnPFHrT6RSxqaZSL51BxAnd0f1TZyq6OpdX+ugtSIODrMTt2oPPlt2DZdFWPaukxCNSQvHYHqcw/wELNZbKtZzGNqRRcDkx2OmOKk7zgPJYl2vwA50ezoy3GZ+JC5OKgaySlwFogygHWJ/XMdPXKSkiouUbPE9WwZhMG286vjXvN6Nmaui4DjnPpZaqMPjokS+fkG3ZV8B+XfheWHhkro6DdlxPeIioF1cBLiPYUz66N4QN/2MbMMmojA3OFXi9e042xGJnPwItcAoJl+UnkWInDI5AUfJsC5rQKUurKXO+hvY9/otUWJKQ0aCWijJE68MT3ni1YWn1NnWhbptDai5FYeC1dFqqYsIM9npS6xnbEe+j8aKK2JbDm1fvAS8vSEgQitZlnTlxYM+lESwNW67Jo6Rmh8QkcheNQKndxiPZeO20yGrQZCl5Wzt4kiW2I3HUP69VK5vFpcGRET2NEht2PdRd/gOonLiEaOWuEVjlii9Nh+2KIFqHbHUtKe2Gzh9fjiSn3BfCMQ8EYUosY6vUlLjO7fgmDoaqWpe0i4afK2nbUtN6wS6vSFRf1sEViQmiAsn7+MgjtF6i9J1SMgLBesmjOBF+P470nSh8vmB/IxERANn8DqdWZSyfZWupb46YnV91IOoaaPVnIj/R0QpeGoy1uycaf3QxlQPR7SuZD5pmijJ+7EtT4Fub2jIwLoIxyPjkaPbv6Wb0pCXH20S4jaSMFp8xz1wmNeiExHZ3iD2EjcrZftTKgqA7KglSlK+HyFsqxzs7QVFHIdtDdin27d96xtw6uZo5GyaiNQhv6ggIiIzgzusy6OUHZM/3mfpWop6ZISaMidLuI5zt9Uc0Pie7KQ2ut+lxcvnREndj215CnR74aaz/gqqzw1H9qqxaonNtHXDgeGIsunuExH1ZXAD21DK9rN0PXUM8tLVtKeEsZg5tQfNf9J1MOqjg5uVzoqbaBbbMnRg09O2pab1AtzeUJC9q5faYD81sSPML4ISoo23bu3VhauyF/+CsT4vnmQv8jWbmOpEZD8PjRn3aLGaNvVZt0e77t27GDkrCdNnfAnNV+7i/l25UA6bicW8f01CTkEsPj3/MT7Rlpu40YMvz0rEzHmjMOavnajeK95DPeUpcV48RpzoRE9WEiZF/RccH3T3vlYO68oviILj1w04clEt1PwdbVc+Q2JeCmZ9/Uv420f/Kfbl7+o5QQ5h+tY45L4Ujb+dv63bz25c/uSreOrFeCR+8hdcvuFaRw7rEq9fORKO8/+JqJE9OHVU/+EC3Z7R156IR/xfOvH+B7p1Q0x+n8lTR2FS4n/h1kfiu9TtS0z6ROT8ry/j0taraDPbx2COuwjZWdOAa78Tn18t8unGMMQsjMPYT+4YjkNM+jhxzEdgxF+Ho+fKTfGcekr55PQdfHleMrLn6fdRcu5n/r+mYMrIv6Bmx3Xv/Qz275qIaIAF+OMfEchYbby5iLxJSLNufK1P2rjcSOdNUXyMO9bGYZ+TrxHTHtvr68Ypch+18dPTIg0lMu0GGudu47LVfopwyZBjp/Xb0t84Jce53Hvf+789441FzPm6QUh/Ob/PZpzGCEyYFqW7EU2P2M+ePr5PqR/HXRvXrH4wxUqHjx9SEcchb1Wy++YnajtySJj8HNPlcov1tTH6Hj+i4ro5jM+b5gT7d01ENICG5te61I00rG+k4uQObF8nWSIiogffILdhS6IUs0CWrttZYiEiIvLT4Ad2ejymx95BNUvNREREfhv4KnFfbZlWbZAWP8gQyvZcIiIiOxmaNmwiIiLqlyFowyYiIqL+YmATERHZgF9V4hEjR6m5/rl/j3eZICIiCgWWsImIiGxgWHFxsWkJu/LdY9q/LGETERENvWGfC2q612uvvcbAJiIiCiOsEiciIrIBBjYREZENBBXYw9CNF7e8j/MnT+D8FodaSkRERKEWcGDLsP7+obP4zmx3O/XX1b9EREQUWoGXsCc5MDdRTozCW9/JxNRXovCB9gQRERGFGtuwiYiIbICBTUREZAMMbCIiIhtgYBMREdnAQ8OGDSs+duwYXI+nnnpK+/fy9RbtBZ91d+O/feUr2rTL14uuYv132vDNr8q5KLxdMhpN2jNGf//bZ2qKiIiIgtHvW5MOm3QTv32rGUlqvmX/dPzz9hFqzoi3JiUiIgqNfleJf355DH74ejKOtTrnk5a0Y6FzkoiIiAZIQG3YH1SPwYsbkuGsNL+P5EnaBBEREQ0QdjojIiKyAQY2ERGRDTCwiYiIbICBTUREZAOBB/blKLyr9RS/i++85fx5Tf5aFxER0cAIOLA/xwj826LpeKvWPUabv9ZFREQ0MIKqEpeh/fNXHsPUJ50/r0lEREQDY1hxcbHXnc4kqzud9QfvdEZERBQaw2bMmWsa2C4MbCIioqHHXuJEREQ24FcJm4iIiIYWS9hEREQ2wMAmIiKyAQY2ERGRDTCwiYiIbICBTUREZAPsJR6UaOTtTEaynOy4hdL1N7SlFB5yN27Bj2apGenUv2P2a++pGQpHk1a8jF3/M0bNCTxmRL0Y2KGQPhFrFnQzsMOMFtjwfcLPK6lDcaaa6cPxNzLwUpWaQS62nlyPLDWnZ3ydm2FbrQcwY9F2NaOXIt63rPd9W/avQP72JjXXP2afTf9+qUXl2L8kUZvudWITZqytwppDdSj0eMqc2MaTa1Gp5vRSc4uwedliJPW+TytaTuzFOvH+2eL9x+0x/55c/Dl+RF8krBKnLzwZYjOezOh97G31XLYJx9Vr3arwkm6d4hPOdZbsb0XWsiL1GqPKtRna82gVwZW4GFtz1RN6uSu1sG4RDxn8gYa1JLc3Y/kB8V6t2LvcuZ/692vcXuDcf/1rRJhKpYvk6+Xndq/r9XijTnuttxQt8DcvG4dje/TfYwF2Xy/E/pMlmKNeSUT+Y2ATBSulCMszW3HsSBMaj9SKMJ6NNSnqOVO12C0CPmuud2KvWZYhgl8GaIg0bRfbSsSc+dY7lDp/NpJaa1Ea4LXBVfWvS15JGeYcFyX5RWtRWmV800p5kfAGdKVuIvIXA9tETPpY5G2aiTU73Y+lmyYiI122Wc9EXrp6oaeECGSsTtOtl4a8/Gj1pLmYhGhtnaX67W1KE9uKUK/wlrpa99qdE5GqLY0Qy8X79L6HWJ6gPRE4EUQVJ+twRv84VKS256xyNTwnHhVFxmCQ1aJbRWnL8LpD5ViT6zPRNGbrVhwqEevK6ug68xLqEDAEngjIY62+A1Kq3CVCObPQGOzi+56TKIP/Q7UgNCrfrUPSkpW9x80oBd9bkojje8yq5/tQtVaUmteiUc1qcktQnFmHdb5qBsR6shZjQMxfhoO/34Ja8Ti48XG1kOjBwMD2IEOvYMEIXN1xEaXPn1aPi6g+3I2oBaqDmakoLN0wHlHvXXOv9/o1OKYlY81qi9BOn4iCDWPEezpwWre98sMOJK+YjKX55qHduE29f9kd54KEsSLwx2PCRzdRrd6j5lYkshf6vljokwif/N6qzzoskdOLtveeoLUqV7FMVgdrbZ9i2lCFK07e+1+djet7VjjXVY8lG/cCc4sN4e8pr6Qc+5eNw9GN+irVFVi35zrGLTNvOx44zbhuGTApyM5KRMvxI2oeqDneiqSs+ZafTaNKvoUr3VcdeSsXI+nE3oBLupaq3sVxZOB7llXwdTjqoy1ZT1Z1+7pQypubIf4W3jWGuAlZ5e6r/TpQuZnfgOs6NWFWGsLkmo4oJBjYOjH5aciOc6B8/RU0tt1XS6X76Ky/gcr1zeLUbSF2OBxlDais160n3qNOrjM12bxUXn9FhGsD9m27Ydie3FZ1dQ+ipo1WS3wRwbxqhAh8se2KLnSqpVqobwtRh8GqXdYnfFUdvHeXx9lXls5fTcDe5QVataj+BN7YVIXStQUobl2M/SXebyo7QxUn1mLJorWobNKnl3ifqu14aZFZm3Jg5EVH3+3ETdYBIwKvMLEOuw1tw3txPHGx+felYyxl52JeJnD83QFIMVThqEUVvCtgzTqNBarluuX/kgFXdeIS2tR026kG8cmJHhwM7F4RmJUzHM2Hb/SGnrcuVIrSa2W9mtXruGW+XKzj6FCT/dB5s0dN9eUOarQLDDU7IJrwS4vOVFbtn9ryPkqLzsCaizw17+SuorUupTk7fA1ECa2/zAPPOiANVPW5LGWnFhUiq/UAfjlAn8n8u/bnIkHs3253k4R/PceH0JE9eO7pVzBbPJ5j73J6wDCwXRJGIwo9cAzyyKzU/InG9mvtkYalCyLVK8KDeWcq6/bPCePEmT1zvaH92euxezGSkIBkQzvufLGsFUNYSOsH68CT7cbwCkhvpXvk6wqxWVWr91WVHLCmI+LiIAPLdX0M/LtIMPYSH7C2ZyLqEwN7yEQgQwR19jSIUv1FlKu2Z+fjGqrPqfbpcGHS5upq/7Q84at2bd+PgtC32Q4SLfDEv1mvmlyMvCpK3jAGpKmqXSIEE5HkUa0eek29besurrb3UF4kXL0utjHOuqcHEQWOge3S1g0HhiNqrJofaOnxmB7rrM6uq7/vUQ0v5m+qyTDiWa3qHIK0y/SE7yph+ux4ZabpQ7QgEXY452uB5zGGW/+QY671AWnO2T4ue1uHsh3ZjKGWpLdHev8uEjzb8j07oWnb8Oz9PmjG4Ceqh3jt719G0QS1mOgBwcDu1YWr54HkBWOhuzGiF9mLfM2m4FM9ZsxwoKPbonQjSt9hViWu0dpcVamxrxO+VnLMwOa+SpheVPvvMuse5JLsRS57mQ8ZPwLPvzHZg0jVksghZ8GOvbYktrFuP1D4mq/jl+IcEmjS4TAo878FWa8htf3mILZ7DhAnsjkGtk7jtos4izgUiECOMYxhjtDGZsu25uy4HtTsCL6hu/NPDjhi47DUME47wtmmvXMykuFvp7PBJdtc5ZjeNX0OQRIlx42b0JJVhoqSIuSleKSWmM8rKkHFyRLxnFqmVK5dgb1YjP1y2JfhORE0uUWoEKW64sQ2FG8MYOxwiPg1BEt1KutrTPZgco7JLsbmQMde+0HeQW3J8dni+HkeW+fx23qoTBy/A1ii7qoWKpOSXJfal7CvLAyrqIiCxHuJm5DhnLMgDlGxaoHg6LiD5sPtWvW1m+7HPxRH9UXsq3C+Rg4TK8gRJeled1Dz/BV3qTphLPJWxSHZYzund4jXjJ2INSucpWz9e2pjrjeIfXPOmRvQHyJx3etadkbyp/1ZBvNKLM/KMNzdqqW1DseOv4ua7VWWbaje96JW6+3Z5XUHLTP+34ta3kqzzLIHtP7+29pwNa2znJ7n/bSt7zNu5PEd5paotm8dy3uOB8q1b9b3AJf8v5e49b3TU1Nykb2yEIWZujcSx29vyI+fNAZFO7+PgnhxNH76Cn7oHhZP9MBgYNMDiz8eYW/9On4TcnGw9CkktP8Rs58PbcmdKFywSpyIbG9S1mQkoBPlWxjW9OBiCZseWFoJjb+HbSv8PWwiawxsIiIiG2CVOBERkQ2whE0Uzkx7pfvDdy9wIrIfBjYREZENsEqciIjIBhjYRERENsDAJiIisgEGNhERkQ0wsImIiGyAgU1ERGQDDGy7k7/etXMmluZHqAUPMPVZ18hHCH6TnIjIThjYZB9tN7Dv+dMorx6A3wqXNyg5WY414fPT1UREBgxsu1Mh1vt72URE9EBiYBMREdkAb02qiUbezmQky8mOWyhdf0NbqkmfiDUrItUM0Fx2GpX1akaIyU9DQc5wMdWDs6834PITE5GTE4ko59NwnL+F6m030KnmvUUgdfV4zJw63L1Oxx00H24HFkxG1GHj9px0++tyvhml2/w4Vgli3VVi3Vg1L/a7uewaKm+MxtINcc590H0HwX6+mPSxmLUgTrc9oUO81+FrqKv3USuQEIGMheMxXXwvLtq23hH79YTYp2kO43EKUGpROfYvSVRzFloPYMmi7WhUs57yikqwPCsDSb1v04qWE3uxbm2VYR39tlr2r0D+kWRsfa0QWYnu7be01mH3xrWobFILPKTmFuF7yxaLddQCqbUVe/cUo7TKYiW9+ctw8H9/Awlisu3Uv+M5/nQlkW0wsPVkOC/otgyCjE0zzQNUdobaICKsQ4buLZTvEAHWJpeL0Fk1GdPlMvGe3qGmglcEZO86klgvVYRVtggrzwsEM6mrZyIbfgS2dvEh31MEtCss1T4m37oDyO2JUK5z7YdLoJ9Pbe+s2N5lsT3X8zHiomHSwjGYHuewXG+pWM+h3095YZMfj5ni4sFxHkgW64YisHtpP7IxG8eWF6DUj9xzysXWQ4VIOr4X+dur1DKn1NwSbF4G0/Bdc6gOc0QwIzNBBPde/FKs6wp2GcibX12Mljcy8JLxLcXmSnDm1QTsfaMYNSKce9dJyUX2ykIUJtb6vLCQjL8Rfgk/fnoPPDdDROGJVeIhI0qCt0RoygByBV7bfdStb0ZzbBxmpatleumjRSn5Dmr060hivcZt13C2Q82HhLg4kOEpAtkdgoK2jxfRHOcuNZvr5+eTIa+2J0vS+lDubOtC3bYG1NyKQ8HqaLXUxbmf8sLBsJ8Q30nFFex73YEoXal76KSI4F0P7CnwCmupsWot8vcAxa8VIVUt00uSYf1GAV7ShbXUWLUd+csPIOlVjw5w8oJChrW8oNCFtdTYVIXStQUobl2M/SW5aqm5qhOX0Hv4TjUwrIlshIEdMj1ofseshNsFh1Xw1t8W5eJITMiPQIxa5CbDsO/Stb9i8seIkrzDu/SsEds6LErYPvXv88U8EYWo8zcttufU+M4tOKaONgSatp++1mu7gdOihD3kcleKEm0dfukr8ap2YS8W43tmGXpir3cJ2qVpO3afSMSc+e7ETp0/G0liHV+l/8pdB9CSORd5at7UkT147ulXMFs8WB1OZC8M7CHVhcrnL8LxyHjkuMYXyzHVm9KQlx9tEuKBi35ElpC71ZyJG91wqMlQ0LY3Nbn3M5k+tDbz4YiWDarKpGnD4fjIx34KXR8NwLCufkp9VOx063Wf1c8iedHcKkrTj3qPFWu53qymzF293oqkrPlqDpgwLhHIXI8zJ+usH9rvZicgmUPTiB5IDOwhJ0q32xq0oVml6rFvfQNO3RyNnE0TkaoLM9uRHeF0n8v8YdJmTuZObMKMJzP6ePSnDZ6I7ISBHaY666+g+txwZK8KzR29tFJp3Ag1Z2LsiD7asPun8T3ZiW10v2sJLp/rQdQjPvZT0ErvQ6zxQ3GVkTjOtH3aLQXJomDc8qF3giaNM/Tx9yJL1C3Hj6g5oPJd2Ultbh/b68sY/OT3W1CrPV5G0QS1mIhsgYHtKXaEecgkRCNKPzQpBGSv88G6pWhnxU00x0Yhw7TEHoGMBe6hayFR346zHZHI6efn0/Zz6hiL/RQSxmLmVDU9lGT7dGsGNhf5qH+W7dw4YN7OnVmIrVb9w1KKsDyzFceO6ILen+31Zf63kKEm235zENuvqhkisgUGtp7qBDYrXR8yEYiRw4xWjUZUSHttO0XljMfS1dGI8Qgouc2cHODsjlANXepCZVkPpm9IQ4b+88lx2ZsmIxk9IW3D1qr6dzTDMW2y+HxjkZrgEdxy6Fq++F53elb7O/czWexnnsdx0F6/IQqO8wPQht20HcdaE1Eoe3X3ZmKKNsxq66FynDlZjjxDVjahdNEmtGSVoaIk16Pkm6KNza5YBhRvNB9m1bK/FlhWjq1FxnXl9ipem631IDdWbYvtbXRtr0jsi0dwi3ltmydLPPbTbVKS61L0EvaV3VTTRGQXHIftyfPGIh09aD53E5UVXVqJeLpcrruxSO8yF/2NV7RxyLqSq8dNWeS6yeeacRojMGFalNimq6pXhKfY7ukdV9Do1b6rxm6rOWt3UPO8WF/N9fJ545Qor3HYwXw+JzV+elqkoYZCuznMudu4LL5X7/HpgtjPDDlW2+rGKdrNXMSy6oshvC1rCtaUFKMwU3dXktZWHD9uHCvtyd8bp7ho47CPr0D+djHtsb2+bpzivBhY6bE953rHjr+LGsv9HIOind9HQTxQ99NX8EN3bTsR2QQDm5zUzVFMb5xCIeUO7EHsHTYhFwdLn0JC+x8x+3mOviayI1aJk5PW6awHlxnWD6RJWZORgE6Ub2FYE9kVA5u0+30vXRGJ5rIr5tXTZHuXy97E7KffZEczIhtjlfgXjWe7s9RxB2d3XGFV+ACz+qGR42b3DSci8sDAJiIisgFWiRMREdkAA5uIiMgG/KoSjxg5Ss31z/17d9UUERERBYMlbCIiIhtgYBMREdkAA5uIiMgGGNhEREQ2wMAmIiKygX4H9jB048VDJ3D+5An83y038XW1fMClFKHiZB0q/Po94FxsFa89o3+UWP34MBERUfgLqoSdNLsZ5Vv6/hVl+etEhvA0PMpNfk84WFV46ckMzFCP4hNqMRERkU31O7A/xwj8fFEmpr3+iHPB7C4sdE5ZKl0kgnP5AbSgFXuXu4NUeywvxjEUYv+hEuSp15tq2o588fpB/UlCIiKiMBF4Cbs5QgSwdB/Jk7SJwDQ1oXRtAYpbM7Dcr+puIiKiL56w6XR29XorkrLmqzmXwW+LTk3JxZqSclToq/EPlWNNrp8XE/OX4eDvt6BWPA5ufFwtJCIiCk7YBLa5QW6Lzi3B/t2FmINa7N64one7S/bUYs6rZX51eMvN/AYS1HTCrDRxyUFERBS8sAns7KxEtBw/ouaGSNVaEdAFyF+7HZVN7rbyxqrtWLffrAbAW9WJS3D9rHTbqQZxyUFERBS8L+XNnQOrh3/uYu7rV/FiTrea7ydVBV2IA1gXxh3KGj90xXAfjuzBc0+/gtni8dxr76mFREREwQnq17oWbjmB12erGTyCDU9OwDtqTjL8WpccR717MZLUrFsrjr9RjJeq+g7rvJI6FGMTZqztX7m1P+vlFZVgeVYGkhLVAk0rWloTxb4fwIxF29UyIiKiwRNwlfiwSTexUoV1S+0jeOv1eENYmzMZ1vVkgV9hPfBStPHixVnAsT0rsMSwj8VYd7xOvY6IiGjwhaANexTe3TUBP68eoeZtKnclChNFYC9ai1JxAdGoFjuJ+Q/VpE9j8BPVQ7z29y+jaIJaTEREFKQw7yU+eFIfTQBar6NSzRuJ0veyDDXtw/xvwfWqtt8cxParaoaIiChIDGyl8UgtWhIXo6JIPxArRWvTrjhZhjloVcusTUqKUVOXsK/sppomIiIKXsCdzmQb9m/fakYSRuGt7zyGn19WT+i4Op3JtuFCQyculzoUP7nWolQrb5qyHllqzprnewS6npBShK2vLUaWbl9bWuuwe6N4XXIJzrzqLD+37F9hcovUMSja+X0UxIt3/ukr+OEQj1AjIqIHS+CBnXMV5zZ8JKa8e4e7GHqJP+gm5OJg6VNIaP8jZj/P0ddERBRa/a4Sd/28pjOshdpoP3qHP/gmZU1GAjpRvoVhTUREoRdUG3ZLbTIKXolSc19sl8vexOyn32RHMyIiGhBB3TilL1+oKnEiIqIBxF7iRERENsDAJiIisgEGNhERkQ341YZNREREQ4slbCIiIhtgYBMREYU94P8D+hh0dEsPbdoAAAAASUVORK5CYII=;" vertex="1" parent="1">
          <mxGeometry x="-20" y="-60" width="430" height="166.06" as="geometry" />
        </mxCell>
      </root>
    </mxGraphModel>
  </diagram>
</mxfile>
